<svg id="Layer_1" data-name="Layer 1" xmlns="http://www.w3.org/2000/svg" viewBox="0 0 453.98 417.75"><defs><style>.cls-1,.cls-8{fill:#fff;}.cls-2,.cls-4,.cls-7{fill:#050e1d;}.cls-3{fill:#d6bfaa;}.cls-4{font-size:49.93px;letter-spacing:0.06em;}.cls-4,.cls-8{font-family:RobotoCondensed-Bold, Roboto Condensed;font-weight:700;}.cls-5{letter-spacing:0.05em;}.cls-6{letter-spacing:0.06em;}.cls-7{font-size:81.57px;font-family:Vollkorn-Regular, Vollkorn;}.cls-8{font-size:29.48px;}</style></defs><path class="cls-1" d="M306,56.81,250,41.12,194.05,56.81S184.64,134.59,250,168.7h0C315.36,134.59,306,56.81,306,56.81Z" transform="translate(-23.01 -41.12)"/><path class="cls-2" d="M250,162.76l-.51-.28C199,134.06,198,78.09,198.91,61.61l0-.74L250,46.55l51.05,14.32,0,.74c.9,16.48-.11,72.46-50.58,100.87ZM201,62.47c-.8,17,.86,70.4,49,97.89,48.18-27.49,49.84-80.89,49-97.89L250,48.72Z" transform="translate(-23.01 -41.12)"/><path class="cls-1" d="M39.54,261.45H460.46a20.21,20.21,0,0,1,7.17-7.09v-42.3a20.29,20.29,0,0,1-7.17-7.09H39.54a20.29,20.29,0,0,1-7.17,7.09v42.3A20.21,20.21,0,0,1,39.54,261.45Z" transform="translate(-23.01 -41.12)"/><path class="cls-3" d="M193.37,291a1.49,1.49,0,0,1-.73-2.18,15.34,15.34,0,0,1,14.47-9.05,18,18,0,0,1,13.38,6.72c3.87,4.72,4.24,10,1.48,15.26a20.39,20.39,0,0,1-15.14,11.12c-9.47,1.71-18.33-.39-26.86-4.29-2-.91-3.66-2.62-5.39-4.06a29.78,29.78,0,0,1-2.51-2.69c-.81.1-1.56.13-2.28.29A25.27,25.27,0,0,1,153,300.29,46.19,46.19,0,0,0,139.23,296a39.54,39.54,0,0,0-17.9,1.74,8.08,8.08,0,0,0-5.11,4.15c-2.14,4.42-5.79,7.27-10.14,9.32-.54.26-1.09.51-1.66.73-4.49,1.73-9,3.44-13.44,5.14a1.4,1.4,0,0,1-.8-2.21A23.79,23.79,0,0,1,96,307.36a42.22,42.22,0,0,1,13.63-7.95c5-1.77,10.06-3.25,15.12-4.78a32.6,32.6,0,0,1,9.89-1c1.45,0,2.9,0,4.65,0A42.23,42.23,0,0,0,127.19,287,72.41,72.41,0,0,0,114,283.65c-4.42-.82-9-.61-13.34-1.81-.1-1.18.72-1,1.16-1,12.25.31,24,2.53,34.71,8.94a132.84,132.84,0,0,0,17.29,9,24.27,24.27,0,0,0,11,2.13c1.77-.13,3.53-.55,5-.8.91-1.43.08-2.34-.16-3.3a15,15,0,0,1,1-11,9.46,9.46,0,0,1,4.82-4.61,6.74,6.74,0,0,1,9.43,6,9.8,9.8,0,0,1-1,4.84,17.9,17.9,0,0,1-6.69,7.22c-1.12.73-2.27,1.41-3.49,2.17a16.65,16.65,0,0,0,8.57,6.75,54.44,54.44,0,0,0,15.88,3.5,30.17,30.17,0,0,0,11.19-1.4,16.72,16.72,0,0,0,8.13-5.54c5.64-7,5.74-16-3.85-21.4-4.51-2.53-9-2.58-13.34,0a16.17,16.17,0,0,0-5.56,5.26C194.39,289.27,193.94,290.06,193.37,291Zm-81.92,10.13c-.73,0-1.56-.32-1.84.75a3.63,3.63,0,0,0-1.32,0c-5.72,2.48-10.86,5.76-14.65,10.85-.3.4-.89.91-.06,1.61,3.42-1.33,7-2.57,10.38-4.06,3.74-1.63,7.15-3.77,9.32-7.42l.1-.19-.07.29a8.41,8.41,0,0,0-2,.56c-3,1.71-5.88,3.51-8.85,5.24-.3.17-.78,0-1.9,0,1.41-1.1,2.25-1.85,3.18-2.47,1.61-1.08,3.31-2,4.91-3.12a5.24,5.24,0,0,0,1-1.33,1.63,1.63,0,0,0,1.83-.84l.14-.2Zm61.18-1.94c4.34-1.81,7.93-4.25,10-8.62a8,8,0,0,0,.82-4.79,3.57,3.57,0,0,0-3.21-3.27,6.75,6.75,0,0,0-6.74,2.72,12.85,12.85,0,0,0-2.81,7.93A8.35,8.35,0,0,0,172.63,299.2Z" transform="translate(-23.01 -41.12)"/><path class="cls-3" d="M50.15,183.27c-.53.22-1.07.66-1.53.59-6.86-1.07-13-3.71-18-8.68a11.76,11.76,0,0,1-3.28-5.33,6.26,6.26,0,0,1,.13-4.41,2.27,2.27,0,0,1,3-1.24,11.19,11.19,0,0,1,2.91,2.08,32.79,32.79,0,0,1,3.75,4.5c3.32,4.95,7.25,9.19,12.68,11.88C49.91,182.71,50,182.91,50.15,183.27ZM28.77,165.56c-.1,1-.42,1.82-.19,2.42a20.88,20.88,0,0,0,2.2,4.41c2.13,3.05,5.22,5,8.51,6.55.57.28,1.2.87,2,.23-2.3-3-4.53-6-6.86-9a31.19,31.19,0,0,0-3.4-3.59A9,9,0,0,0,28.77,165.56Z" transform="translate(-23.01 -41.12)"/><path class="cls-3" d="M227.85,168.92a93.78,93.78,0,0,1-21.14-24.09,109.49,109.49,0,0,1-11.44-24.09,121.18,121.18,0,0,1-5.35-41.17c.07-2.11.08-4.23.05-6.35a5.17,5.17,0,0,0-.51-1.49l-.88.1A20.11,20.11,0,0,0,188.2,74c-.17,2.56-.46,5.13-.39,7.69.18,6.64,0,13.35.91,19.91,1.78,12.94,5.31,25.43,11.85,36.9.33.58,1,1.22.12,2-1.9-.45-3.81-.88-5.71-1.35-7.12-1.75-16.22,3.11-19.57,8.7a3.8,3.8,0,0,0-.38.82c-.26.83-.19,1.47,1,1.47a17.24,17.24,0,0,1,10.79-9c6.25-2,12.18-1,16.78,3.69,5,5.16,6.37,11.5,3.88,18.46a26.19,26.19,0,0,1-7.11,10.38,23.16,23.16,0,0,1-20.44,6.24,17.69,17.69,0,0,1-7.84-3.32,29.1,29.1,0,0,1-8.1-9.65c-1.24-2.25-2.4-4.54-3.56-6.84a9.09,9.09,0,0,0-3.18-3.76,2.94,2.94,0,0,0-4.43,1.56c-.76,2-.26,3.9.42,5.74a24.68,24.68,0,0,0,7.56,10.58c1.18,1,2.37,2,3.78,3.14-.7.05-1,.18-1.26.08a161,161,0,0,1-25.54-13.67,7.61,7.61,0,0,1-.72-.55c-10.22-8.83-17-19.59-18.47-33.26-1.11-10.17,2.31-18.71,9.65-25.74.18-.17.54-.15.85-.23,1.14.83.86,2.15,1.07,3.29,1.31,7.31,4.12,13.91,9.43,19.23,4.88,4.89,10.69,7.83,17.77,7.78a12.44,12.44,0,0,0,9.26-4.12,17.85,17.85,0,0,0,2.74-19.86c-3.84-7.25-10-11.61-17.86-13.5-5.64-1.36-11.1-.46-16.42,1.66-1.08.43-2.19.81-3.52,1.29a22.2,22.2,0,0,1-.47-2.89c0-3.93,0-7.86,0-11.79a26.67,26.67,0,0,1,1.52-8.89c.91-2.72,1.83-5.45,2.5-8.23a29.26,29.26,0,0,0,.5-13,18.27,18.27,0,0,0-3.67-8,12,12,0,0,0-1.37,2c-.8,2.12-1.5,4.28-2.23,6.43A45.49,45.49,0,0,0,126,67.77c-.18,3.67.22,7.29,2.26,10.46a7.07,7.07,0,0,1,1,4.27c-.1,5.29-.05,10.58-.06,15.87v3c-1.15,1.09-2.18,2-3.11,2.95-6.31,6.63-9.9,14.35-9.56,23.69a46.68,46.68,0,0,0,1.73,10.71,12.6,12.6,0,0,1,.31,1.32c.06.45.71,1,0,1.31-3.33-3-6.41-6.14-9.9-8.74-6.19-4.61-12.37-9.18-17.82-14.69a20.94,20.94,0,0,0-4.87-3.26,16.83,16.83,0,0,0-10.49-2.09,6.19,6.19,0,0,0-1.65.87c3.52,2.94,6.73,5.67,10,8.33,1.17.94,2.48,1.72,3.73,2.57a11.41,11.41,0,0,0,6.36,2.15,11.07,11.07,0,0,1,6.28,2.24,92.78,92.78,0,0,1,21.08,19.14c2.26,2.83,4.29,5.85,6.42,8.79.09.12.22.26.21.39s-.18.18-.27.26-.31.05-.43,0c-1-.44-1.91-.9-2.85-1.37-13.88-7-28.64-9.33-44-8.23a24.47,24.47,0,0,0-21.65,19c-.93,4.69-.54,9.29,2.24,13.5,6,9.08,20,11.84,29.3,1.42a11.47,11.47,0,0,0-1.39-16.57c-.45-.38-1.07-.61-1.49.51.34.46.74,1.08,1.22,1.62,3.72,4.26,2.37,11.59-1.26,14.88-4.29,3.89-9.23,5.89-15,4.33a15.57,15.57,0,0,1-11.38-11.26c-1.18-4-.48-7.81.89-11.54a23.45,23.45,0,0,1,20.92-14.89,82,82,0,0,1,38.37,7.37,83.41,83.41,0,0,1,20.3,13.16,10.91,10.91,0,0,1-1.66.08c-2.7-.37-5.37-.94-8.07-1.13-7.3-.53-14.14.92-20.19,5.26a16,16,0,0,0-5.7,6.9c-.3.73-.76,1.66.44,2.37a37.28,37.28,0,0,1,2.44-3.76,21.59,21.59,0,0,1,3.55-3.47,24.35,24.35,0,0,1,11.57-4.91c9-1.15,17.79-.25,26.11,3.76,7.09,3.41,14.34,6.31,22.25,7.38,6.54.88,13,.89,19.29-1.06,9.68-3,16-9.44,18.93-19.1a44.28,44.28,0,0,0,.95-6,13.42,13.42,0,0,1,1.44,1.14c2.29,2.41,4.46,4.94,6.85,7.24s4.77,4.19,7.22,6.2a1.13,1.13,0,0,0,1.89-.23A7.43,7.43,0,0,0,227.85,168.92ZM155.64,100c5.23,2.64,9.57,6.27,12.06,11.78,2.85,6.3,1.61,12.12-2.36,17.41-2.36,3.15-5.87,4.09-9.72,3.45a25.78,25.78,0,0,1-17.17-10.74,35.42,35.42,0,0,1-6.63-20.09A23.87,23.87,0,0,1,155.64,100ZM129,74.86c-2-7.39-.74-16.9,3-23.71,1.69,2,1.88,4.4,2,6.75.38,6-.38,10.06-2.67,14.07-.49-1.93-.06-3.68-.11-5.4s.71-3.51,0-5.59c-.5.47-1,.7-1,1-.31,3.13-.55,6.28-.82,9.42C129.28,72.35,129.15,73.31,129,74.86ZM87.17,122h0l-.06,0a51.2,51.2,0,0,1-8.33-7l12.51,7.53L79.6,114.12c1,0,2.81.55,6.18,2.42,7,3.87,9.71,8.22,9.71,8.22S93.05,126.08,87.17,122Zm80,53.85a23.89,23.89,0,0,1-13.11-15.05c-.31-1-.56-2.09.38-2.93.65-.58,2.07-.07,3.08,1.19a16.47,16.47,0,0,1,2,3,63.14,63.14,0,0,0,7.62,12.73C167.3,175,167.21,175.49,167.19,175.87Z" transform="translate(-23.01 -41.12)"/><path class="cls-3" d="M305.13,288.51a16.17,16.17,0,0,0-5.56-5.26c-4.39-2.58-8.83-2.53-13.34,0-9.59,5.39-9.49,14.41-3.85,21.4a16.72,16.72,0,0,0,8.13,5.54,30.17,30.17,0,0,0,11.19,1.4,54.44,54.44,0,0,0,15.88-3.5,16.65,16.65,0,0,0,8.57-6.75c-1.22-.76-2.37-1.44-3.49-2.17A17.9,17.9,0,0,1,316,292a9.8,9.8,0,0,1-1-4.84,6.74,6.74,0,0,1,9.43-6,9.46,9.46,0,0,1,4.82,4.61,15,15,0,0,1,1,11c-.24,1-1.07,1.87-.16,3.3,1.5.25,3.26.67,5,.8a24.27,24.27,0,0,0,11-2.13,132.84,132.84,0,0,0,17.29-9c10.71-6.41,22.46-8.63,34.71-8.94.44,0,1.26-.19,1.16,1-4.34,1.2-8.92,1-13.34,1.81A72.41,72.41,0,0,0,372.81,287a42.23,42.23,0,0,0-12.07,6.67c1.75,0,3.2,0,4.65,0a32.6,32.6,0,0,1,9.89,1c5.06,1.53,10.14,3,15.12,4.78A42.22,42.22,0,0,1,404,307.36a23.79,23.79,0,0,1,5.79,7.49,1.4,1.4,0,0,1-.8,2.21c-4.45-1.7-8.95-3.41-13.44-5.14-.57-.22-1.12-.47-1.66-.73-4.35-2.05-8-4.9-10.14-9.32a8.08,8.08,0,0,0-5.11-4.15,39.54,39.54,0,0,0-17.9-1.74A46.19,46.19,0,0,0,347,300.29a25.27,25.27,0,0,1-16.79,1.84c-.72-.16-1.47-.19-2.28-.29a29.78,29.78,0,0,1-2.51,2.69c-1.73,1.44-3.39,3.15-5.39,4.06-8.53,3.9-17.39,6-26.86,4.29A20.39,20.39,0,0,1,278,301.76c-2.76-5.29-2.39-10.54,1.48-15.26a18,18,0,0,1,13.38-6.72,15.34,15.34,0,0,1,14.47,9.05,1.49,1.49,0,0,1-.73,2.18C306.06,290.06,305.61,289.27,305.13,288.51Zm83.3,12.34.14.2a1.63,1.63,0,0,0,1.83.84,5.24,5.24,0,0,0,1,1.33c1.6,1.09,3.3,2,4.91,3.12.93.62,1.77,1.37,3.18,2.47-1.12,0-1.6.15-1.9,0-3-1.73-5.88-3.53-8.85-5.24a8.41,8.41,0,0,0-2-.56l-.07-.29.1.19c2.17,3.65,5.58,5.79,9.32,7.42,3.43,1.49,7,2.73,10.38,4.06.83-.7.24-1.21-.06-1.61-3.79-5.09-8.93-8.37-14.65-10.85a3.63,3.63,0,0,0-1.32,0c-.28-1.07-1.11-.77-1.84-.75Zm-59.07-7.68a12.85,12.85,0,0,0-2.81-7.93,6.75,6.75,0,0,0-6.74-2.72,3.57,3.57,0,0,0-3.21,3.27,8,8,0,0,0,.82,4.79c2,4.37,5.61,6.81,9.95,8.62A8.35,8.35,0,0,0,329.36,293.17Z" transform="translate(-23.01 -41.12)"/><path class="cls-3" d="M450.2,182.66c5.43-2.69,9.36-6.93,12.68-11.88a32.79,32.79,0,0,1,3.75-4.5,11.19,11.19,0,0,1,2.91-2.08,2.27,2.27,0,0,1,3,1.24,6.26,6.26,0,0,1,.13,4.41,11.76,11.76,0,0,1-3.28,5.33c-5,5-11.13,7.61-18,8.68-.46.07-1-.37-1.53-.59C450.05,182.91,450.09,182.71,450.2,182.66Zm18.81-16a31.19,31.19,0,0,0-3.4,3.59c-2.33,2.93-4.56,5.95-6.86,9,.76.64,1.39.05,2-.23,3.29-1.6,6.38-3.5,8.51-6.55a20.88,20.88,0,0,0,2.2-4.41c.23-.6-.09-1.41-.19-2.42A9,9,0,0,0,469,166.62Z" transform="translate(-23.01 -41.12)"/><path class="cls-3" d="M271.28,169.91a1.13,1.13,0,0,0,1.89.23c2.45-2,4.94-4,7.22-6.2s4.56-4.83,6.85-7.24a13.42,13.42,0,0,1,1.44-1.14,44.28,44.28,0,0,0,.95,6c2.95,9.66,9.25,16.11,18.93,19.1,6.32,2,12.75,1.94,19.29,1.06,7.91-1.07,15.16-4,22.25-7.38,8.32-4,17.1-4.91,26.11-3.76a24.35,24.35,0,0,1,11.57,4.91,21.59,21.59,0,0,1,3.55,3.47,37.28,37.28,0,0,1,2.44,3.76c1.2-.71.74-1.64.44-2.37a16,16,0,0,0-5.7-6.9c-6.05-4.34-12.89-5.79-20.19-5.26-2.7.19-5.37.76-8.07,1.13a10.91,10.91,0,0,1-1.66-.08,83.41,83.41,0,0,1,20.3-13.16,82,82,0,0,1,38.37-7.37,23.45,23.45,0,0,1,20.92,14.89c1.37,3.73,2.07,7.55.89,11.54a15.57,15.57,0,0,1-11.38,11.26c-5.75,1.56-10.69-.44-15-4.33-3.63-3.29-5-10.62-1.26-14.88.48-.54.88-1.16,1.22-1.62-.42-1.12-1-.89-1.49-.51a11.47,11.47,0,0,0-1.39,16.57c9.27,10.42,23.29,7.66,29.3-1.42,2.78-4.21,3.17-8.81,2.24-13.5a24.47,24.47,0,0,0-21.65-19c-15.37-1.1-30.13,1.26-44,8.23-.94.47-1.9.93-2.85,1.37-.12.06-.28,0-.43,0s-.27-.17-.27-.26.12-.27.21-.39c2.13-2.94,4.16-6,6.42-8.79a92.78,92.78,0,0,1,21.08-19.14,11.07,11.07,0,0,1,6.28-2.24,11.41,11.41,0,0,0,6.36-2.15c1.25-.85,2.56-1.63,3.73-2.57,3.27-2.66,6.48-5.39,10-8.33a6.19,6.19,0,0,0-1.65-.87,16.83,16.83,0,0,0-10.49,2.09,20.94,20.94,0,0,0-4.87,3.26c-5.45,5.51-11.63,10.08-17.82,14.69-3.49,2.6-6.57,5.77-9.9,8.74-.73-.32-.08-.86,0-1.31a12.6,12.6,0,0,1,.31-1.32A46.68,46.68,0,0,0,383.49,128c.34-9.34-3.25-17.06-9.56-23.69-.93-1-2-1.86-3.11-2.95v-3c0-5.29,0-10.58-.06-15.87a7.07,7.07,0,0,1,1-4.27c2-3.17,2.44-6.79,2.26-10.46a45.49,45.49,0,0,0-2.31-12.44c-.73-2.15-1.43-4.31-2.23-6.43a12,12,0,0,0-1.37-2,18.27,18.27,0,0,0-3.67,8,29.26,29.26,0,0,0,.5,13c.67,2.78,1.59,5.51,2.5,8.23A26.67,26.67,0,0,1,368.94,85c0,3.93,0,7.86,0,11.79a22.2,22.2,0,0,1-.47,2.89c-1.33-.48-2.44-.86-3.52-1.29-5.32-2.12-10.78-3-16.42-1.66-7.9,1.89-14,6.25-17.86,13.5a17.85,17.85,0,0,0,2.74,19.86,12.44,12.44,0,0,0,9.26,4.12c7.08,0,12.89-2.89,17.77-7.78,5.31-5.32,8.12-11.92,9.43-19.23.21-1.14-.07-2.46,1.07-3.29.31.08.67.06.85.23,7.34,7,10.76,15.57,9.65,25.74-1.48,13.67-8.25,24.43-18.47,33.26a7.61,7.61,0,0,1-.72.55,161,161,0,0,1-25.54,13.67c-.23.1-.56,0-1.26-.08,1.41-1.16,2.6-2.15,3.78-3.14a24.68,24.68,0,0,0,7.56-10.58c.68-1.84,1.18-3.75.42-5.74a2.94,2.94,0,0,0-4.43-1.56,9.09,9.09,0,0,0-3.18,3.76c-1.16,2.3-2.32,4.59-3.56,6.84a29.1,29.1,0,0,1-8.1,9.65,17.69,17.69,0,0,1-7.84,3.32,23.16,23.16,0,0,1-20.44-6.24,26.19,26.19,0,0,1-7.11-10.38c-2.49-7-1.14-13.3,3.88-18.46,4.6-4.71,10.53-5.67,16.78-3.69a17.24,17.24,0,0,1,10.79,9c1.2,0,1.27-.64,1-1.47a3.8,3.8,0,0,0-.38-.82c-3.35-5.59-12.45-10.45-19.57-8.7-1.9.47-3.81.9-5.71,1.35-.86-.75-.21-1.39.12-2,6.54-11.47,10.07-24,11.85-36.9.9-6.56.73-13.27.91-19.91.07-2.56-.22-5.13-.39-7.69a20.11,20.11,0,0,0-.38-2.17l-.88-.1a5.17,5.17,0,0,0-.51,1.49c0,2.12,0,4.24.05,6.35a121.18,121.18,0,0,1-5.35,41.17,109.49,109.49,0,0,1-11.44,24.09,93.78,93.78,0,0,1-21.14,24.09A7.43,7.43,0,0,0,271.28,169.91Zm96.9-68.07a35.42,35.42,0,0,1-6.63,20.09,25.78,25.78,0,0,1-17.17,10.74c-3.85.64-7.36-.3-9.72-3.45-4-5.29-5.21-11.11-2.36-17.41,2.49-5.51,6.83-9.14,12.06-11.78A23.87,23.87,0,0,1,368.18,101.84Zm2.45-30.46c-.27-3.14-.51-6.29-.82-9.42,0-.28-.51-.51-1-1-.71,2.08.05,3.84,0,5.59s.38,3.47-.11,5.4c-2.29-4-3.05-8-2.67-14.07.15-2.35.34-4.71,2-6.75,3.72,6.81,5,16.32,3,23.71C370.85,73.31,370.72,72.35,370.63,71.38Zm33.88,53.38s2.7-4.35,9.71-8.22c3.37-1.87,5.19-2.38,6.18-2.42l-11.68,8.37L421.23,115a51.2,51.2,0,0,1-8.33,7l-.06,0h0C407,126.08,404.51,124.76,404.51,124.76Zm-71.63,50.05a63.14,63.14,0,0,0,7.62-12.73,16.47,16.47,0,0,1,2-3c1-1.26,2.43-1.77,3.08-1.19.94.84.69,1.94.38,2.93a23.89,23.89,0,0,1-13.11,15.05C332.79,175.49,332.7,175,332.88,174.81Z" transform="translate(-23.01 -41.12)"/><path class="cls-3" d="M467,270.81H33l-.14-.88a10.6,10.6,0,0,0-8.94-8.78L23,261V205.38l.9-.12a10.6,10.6,0,0,0,8.94-8.78l.14-.87H467l.14.87a10.6,10.6,0,0,0,8.94,8.78l.9.12V261l-.9.12a10.6,10.6,0,0,0-8.94,8.78ZM34.73,268.73H465.27a12.7,12.7,0,0,1,9.64-9.48V207.17a12.71,12.71,0,0,1-9.64-9.48H34.73a12.71,12.71,0,0,1-9.64,9.48v52.08A12.7,12.7,0,0,1,34.73,268.73Z" transform="translate(-23.01 -41.12)"/><path class="cls-3" d="M250,375a345.23,345.23,0,0,1-106.85-16.92l-1-.32,14-43.13,1,.32a298.64,298.64,0,0,0,185.68,0l1-.32,14,43.13-1,.32A345.23,345.23,0,0,1,250,375ZM144.78,356.43a341.53,341.53,0,0,0,210.44,0l-12.73-39.17a302.63,302.63,0,0,1-185,0Z" transform="translate(-23.01 -41.12)"/><path class="cls-3" d="M137.56,371.82a23.2,23.2,0,0,1,4.86,1.19c10,3.07,20.14,5.31,30.29,7.65,9.71,2.23,19.53,4,29.12,6.76,3.47,1,7.09,1.49,10.64,2.21l13.76,2.77a4,4,0,0,1,2.06,1.06c-2.75.74-2.74.72-7.49-.33-2.5-.55-5-1-8-1.63,1.38,1.72,2.94,2.25,4.23,3.13a27.67,27.67,0,0,1,12,17.49c1.43,6.64-.86,12.39-6,16.59A15.86,15.86,0,0,1,205.91,431a16.53,16.53,0,0,1-8.52-8.43,10.07,10.07,0,0,1,.25-9.56,13.43,13.43,0,0,1,6.57-6,7.1,7.1,0,0,1,6.33.12,5.19,5.19,0,0,1-1.37.5c-4.61.16-7.44,2.92-9.65,6.57a8.27,8.27,0,0,0-.73,7,13.57,13.57,0,0,0,15.67,9.24,15,15,0,0,0,12.47-13.67c.81-8.54-3.21-14.93-9.42-20a37.65,37.65,0,0,0-15.44-7.32q-10.8-2.55-21.62-5c-8.1-1.86-16.23-3.57-24.29-5.58-5.56-1.39-11-3.14-16.52-4.81C138.79,373.71,137.52,373.59,137.56,371.82Z" transform="translate(-23.01 -41.12)"/><path class="cls-3" d="M362.44,371.82a23.2,23.2,0,0,0-4.86,1.19c-10,3.07-20.14,5.31-30.29,7.65-9.71,2.23-19.53,4-29.12,6.76-3.47,1-7.09,1.49-10.64,2.21l-13.76,2.77a4,4,0,0,0-2.06,1.06c2.75.74,2.74.72,7.49-.33,2.5-.55,5-1,8-1.63-1.38,1.72-2.94,2.25-4.23,3.13a27.67,27.67,0,0,0-12,17.49c-1.43,6.64.86,12.39,6,16.59A15.86,15.86,0,0,0,294.09,431a16.53,16.53,0,0,0,8.52-8.43,10.07,10.07,0,0,0-.25-9.56,13.43,13.43,0,0,0-6.57-6,7.1,7.1,0,0,0-6.33.12,5.19,5.19,0,0,0,1.37.5c4.61.16,7.44,2.92,9.65,6.57a8.27,8.27,0,0,1,.73,7,13.57,13.57,0,0,1-15.67,9.24,15,15,0,0,1-12.47-13.67c-.81-8.54,3.21-14.93,9.42-20a37.65,37.65,0,0,1,15.44-7.32q10.8-2.55,21.62-5c8.1-1.86,16.23-3.57,24.29-5.58,5.56-1.39,11-3.14,16.52-4.81C361.21,373.71,362.48,373.59,362.44,371.82Z" transform="translate(-23.01 -41.12)"/><path class="cls-3" d="M250,458.88l-.73-.74a24.12,24.12,0,0,1,0-34.08l.73-.73.74.73a24.14,24.14,0,0,1,0,34.08Zm0-32.58a22.06,22.06,0,0,0,0,29.6A22.06,22.06,0,0,0,250,426.3Z" transform="translate(-23.01 -41.12)"/><path class="cls-3" d="M250,410.6a5.9,5.9,0,1,1,5.9-5.9A5.91,5.91,0,0,1,250,410.6Zm0-9.72a3.82,3.82,0,1,0,3.82,3.82A3.82,3.82,0,0,0,250,400.88Z" transform="translate(-23.01 -41.12)"/><text class="cls-4" transform="translate(45.3 209.14)">FINN BR<tspan class="cls-5" x="186.23" y="0">O</tspan><tspan class="cls-6" x="216.99" y="0">THERS</tspan></text><text class="cls-7" transform="translate(204.11 83.84)">F</text><text class="cls-8" transform="translate(152.45 312.48) rotate(11.22)">E</text><text class="cls-8" transform="translate(169.69 315.84) rotate(8.19)">S</text><text class="cls-8" transform="translate(188.48 318.44) rotate(5.19)">T</text><text class="cls-8" transform="translate(205.76 319.96) rotate(2.14)">D</text><text class="cls-8" transform="translate(225.19 320.53) rotate(-0.24)"> </text><text class="cls-8" transform="translate(234.5 320.51) rotate(-2.45)">1</text><text class="cls-8" transform="translate(252.15 319.68) rotate(-5.37)">9</text><text class="cls-8" transform="matrix(0.99, -0.14, 0.14, 0.99, 269.75, 317.95)">6</text><text class="cls-8" transform="translate(287.23 315.32) rotate(-11.21)">0</text></svg>